<svg width="28" height="28" viewBox="0 0 28 28" fill="none" xmlns="http://www.w3.org/2000/svg">
<path d="M14.1723 11.9569C19.3325 11.9569 23.5157 9.27181 23.5157 5.95963C23.5157 2.64745 19.3325 -0.0375977 14.1723 -0.0375977C9.0121 -0.0375977 4.82893 2.64745 4.82893 5.95963C4.82893 9.27181 9.0121 11.9569 14.1723 11.9569Z" fill="white"/>
<path d="M11.301 27.2177C13.7904 25.7786 13.6812 20.9224 11.057 16.3711C8.43277 11.8199 4.28734 9.29706 1.7979 10.7362C-0.691541 12.1754 -0.582296 17.0316 2.04191 21.5828C4.66611 26.1341 8.81154 28.6569 11.301 27.2177Z" fill="white"/>
<path d="M25.5554 21.9351C28.3846 17.5087 28.7154 12.6626 26.2943 11.111C23.8732 9.55935 19.6169 11.8898 16.7877 16.3162C13.9584 20.7425 13.6276 25.5887 16.0487 27.1403C18.4699 28.6919 22.7262 26.3614 25.5554 21.9351Z" fill="white"/>
</svg>
